<svg xmlns="http://www.w3.org/2000/svg" xmlns:xlink="http://www.w3.org/1999/xlink" id="Layer_1" width="256" height="256" x="0" y="0" enable-background="new 0 0 256 256" version="1.1" viewBox="0 0 256 256" xml:space="preserve"><title>Square Avatar 02</title><desc>Created with Sketch.</desc><g><linearGradient id="SVGID_1_" x1="17.606" x2="219.107" y1="129.644" y2="126.644" gradientUnits="userSpaceOnUse"><stop offset="0" style="stop-color:#373ade"/><stop offset="1" style="stop-color:#6163fe"/></linearGradient><path fill="url(#SVGID_1_)" d="M206.656,44.953c3.242,0,5.871,2.628,5.871,5.87v154.354c0,3.243-2.629,5.871-5.871,5.871H49.34 c-3.241,0-5.868-2.628-5.868-5.871V50.823c0-3.242,2.627-5.87,5.868-5.87H206.656 M206.656,33.5H49.34 c-9.552,0-17.321,7.771-17.321,17.323v154.354c0,9.554,7.771,17.323,17.321,17.323h157.316c9.553,0,17.324-7.771,17.324-17.323 V50.823C223.98,41.271,216.209,33.5,206.656,33.5L206.656,33.5z"/></g><g><linearGradient id="SVGID_2_" x1="897.779" x2="1034.221" y1="-455.888" y2="-455.888" gradientTransform="matrix(1 0 0 -1 -838 -270)" gradientUnits="userSpaceOnUse"><stop offset="0" style="stop-color:#1488cc"/><stop offset="1" style="stop-color:#2b32b2"/></linearGradient><path fill="url(#SVGID_2_)" d="M196.221,193.779c0,3.647-2.959,6.607-6.604,6.607H66.386c-3.648,0-6.607-2.96-6.607-6.607v-15.784 c0-3.647,2.959-6.606,6.607-6.606h123.229c3.646,0,6.605,2.959,6.605,6.606V193.779L196.221,193.779z"/></g><g><linearGradient id="SVGID_3_" x1="39.286" x2="228.786" y1="67.837" y2="76.837" gradientUnits="userSpaceOnUse"><stop offset="0" style="stop-color:#3739de"/><stop offset="1" style="stop-color:#5f61fd"/></linearGradient><path fill="url(#SVGID_3_)" stroke="#DDD" stroke-miterlimit="10" d="M196.221,79.943c0,3.649-2.959,6.607-6.604,6.607H66.386 c-3.648,0-6.607-2.958-6.607-6.607V64.159c0-3.647,2.959-6.607,6.607-6.607h123.229c3.646,0,6.605,2.958,6.605,6.607V79.943 L196.221,79.943z"/></g><g><linearGradient id="SVGID_4_" x1="59.779" x2="196.221" y1="186.051" y2="186.051" gradientUnits="userSpaceOnUse"><stop offset="0" style="stop-color:#3739de"/><stop offset="1" style="stop-color:#5f61fd"/></linearGradient><path fill="url(#SVGID_4_)" stroke="#DDD" stroke-miterlimit="10" d="M196.221,193.943c0,3.648-2.959,6.606-6.604,6.606H66.386 c-3.648,0-6.607-2.958-6.607-6.606v-15.784c0-3.647,2.959-6.607,6.607-6.607h123.229c3.646,0,6.605,2.958,6.605,6.607V193.943 L196.221,193.943z"/></g></svg>